<?xml version="1.0" encoding="UTF-8" standalone="no"?>
<!-- Created with Inkscape (http://www.inkscape.org/) -->

<svg
   xmlns:dc="http://purl.org/dc/elements/1.1/"
   xmlns:cc="http://creativecommons.org/ns#"
   xmlns:rdf="http://www.w3.org/1999/02/22-rdf-syntax-ns#"
   xmlns:svg="http://www.w3.org/2000/svg"
   xmlns="http://www.w3.org/2000/svg"
   xmlns:sodipodi="http://sodipodi.sourceforge.net/DTD/sodipodi-0.dtd"
   xmlns:inkscape="http://www.inkscape.org/namespaces/inkscape"
   width="50.988281"
   height="13.6"
   id="svg2"
   version="1.1"
   inkscape:version="0.48.3.1 r9886"
   sodipodi:docname="apps.svg">
  <defs
     id="defs4" />
  <sodipodi:namedview
     id="base"
     pagecolor="#ffffff"
     bordercolor="#666666"
     borderopacity="1.0"
     inkscape:pageopacity="0.0"
     inkscape:pageshadow="2"
     inkscape:zoom="12.905651"
     inkscape:cx="22.403527"
     inkscape:cy="9.4680834"
     inkscape:document-units="px"
     inkscape:current-layer="layer1"
     showgrid="false"
     inkscape:window-width="1365"
     inkscape:window-height="720"
     inkscape:window-x="1"
     inkscape:window-y="24"
     inkscape:window-maximized="1"
     fit-margin-top="2.8"
     fit-margin-left="1.5"
     fit-margin-right="2"
     fit-margin-bottom="2.8" />
  <metadata
     id="metadata7">
    <rdf:RDF>
      <cc:Work
         rdf:about="">
        <dc:format>image/svg+xml</dc:format>
        <dc:type
           rdf:resource="http://purl.org/dc/dcmitype/StillImage" />
      </cc:Work>
    </rdf:RDF>
  </metadata>
  <g
     inkscape:label="Layer 1"
     inkscape:groupmode="layer"
     id="layer1"
     transform="translate(-133.9521,-395.82418)">
    <rect
       style="fill:#00ffff;stroke:none"
       id="rect2988"
       width="58.656475"
       height="19.293873"
       x="125.37899"
       y="374.328" />
    <rect
       style="fill:none"
       id="rect3044"
       width="20.871191"
       height="10.903556"
       x="139.01643"
       y="388.1423" />
    <g
       style="font-size:10px;font-style:normal;font-variant:normal;font-weight:bold;font-stretch:normal;line-height:125%;letter-spacing:0px;word-spacing:0px;fill:#ffffff;fill-opacity:1;stroke:none;font-family:Droid Sans;-inkscape-font-specification:Droid Sans Bold"
       id="flowRoot2985"
       transform="matrix(0.75710706,0,0,0.75710706,36.505486,93.181431)">
      <path
         d="m 144.9707,393.74874 -0.48828,-1.69922 -2.46094,0 -0.49316,1.69922 -1.52832,0 2.31934,-7.16797 1.85058,0 2.3291,7.16797 -1.52832,0 m -0.83984,-2.96875 -0.45899,-1.5625 c -0.0195,-0.0586 -0.0488,-0.15462 -0.0879,-0.28808 -0.0391,-0.13346 -0.0814,-0.27995 -0.12695,-0.43946 -0.0423,-0.16275 -0.083,-0.32551 -0.12207,-0.48828 -0.0391,-0.16275 -0.0667,-0.3011 -0.083,-0.41504 -0.013,0.0716 -0.0309,0.15626 -0.0537,0.25391 -0.0195,0.0977 -0.0439,0.20183 -0.0732,0.3125 -0.026,0.10743 -0.0537,0.21648 -0.083,0.32715 -0.0293,0.11068 -0.057,0.21485 -0.083,0.3125 -0.026,0.0977 -0.0504,0.18392 -0.0732,0.25879 -0.0195,0.0749 -0.0342,0.13021 -0.0439,0.16601 l -0.4541,1.5625 1.74316,0"
         style="fill:#ffffff"
         id="path3032"
         inkscape:connector-curvature="0" />
      <path
         d="m 150.15625,393.8464 c -0.17904,0 -0.34017,-0.0195 -0.4834,-0.0586 -0.13998,-0.0391 -0.2653,-0.0911 -0.37598,-0.15625 -0.11067,-0.0651 -0.20833,-0.13834 -0.29296,-0.21972 -0.0846,-0.0846 -0.16114,-0.17253 -0.2295,-0.26367 l -0.0781,0 c 0.013,0.11393 0.026,0.22135 0.0391,0.32226 0.01,0.0846 0.0179,0.17253 0.0244,0.26367 0.01,0.0879 0.0146,0.15625 0.0146,0.20508 l 0,2.21192 -1.48925,0 0,-7.86133 1.21093,0 0.20996,0.70801 0.0684,0 c 0.0684,-0.11068 0.14649,-0.21484 0.23438,-0.3125 0.0879,-0.0977 0.1888,-0.18229 0.30273,-0.25391 0.11719,-0.0749 0.24902,-0.13346 0.39551,-0.17578 0.14648,-0.0456 0.30924,-0.0684 0.48828,-0.0684 0.2832,0 0.54036,0.0602 0.77149,0.18066 0.23111,0.12045 0.42968,0.29949 0.5957,0.53711 0.16601,0.23764 0.29459,0.53223 0.38574,0.88379 0.0911,0.35157 0.13672,0.75847 0.13672,1.2207 0,0.4655 -0.0472,0.87566 -0.1416,1.23047 -0.0944,0.35157 -0.22787,0.64779 -0.40039,0.88867 -0.16928,0.23764 -0.37273,0.41667 -0.61035,0.53711 -0.23438,0.12045 -0.49317,0.18067 -0.77637,0.18067 m -0.46387,-4.46778 c -0.16602,10e-6 -0.30762,0.0309 -0.4248,0.0928 -0.11394,0.0586 -0.20671,0.14811 -0.27832,0.26855 -0.0716,0.12045 -0.1237,0.27344 -0.15625,0.45899 -0.0326,0.18229 -0.0521,0.39551 -0.0586,0.63965 l 0,0.16113 c 0,0.26367 0.0147,0.49805 0.044,0.70312 0.0325,0.20508 0.0846,0.37761 0.15625,0.51758 0.0716,0.13672 0.16601,0.24089 0.2832,0.3125 0.12044,0.0716 0.26855,0.10742 0.44434,0.10742 0.29622,0 0.51269,-0.13997 0.64941,-0.41992 0.13997,-0.2832 0.20996,-0.69336 0.20996,-1.23047 0,-0.5371 -0.07,-0.93912 -0.20996,-1.20605 -0.13672,-0.27018 -0.35645,-0.40527 -0.65918,-0.40528"
         style="fill:#ffffff"
         id="path3034"
         inkscape:connector-curvature="0" />
      <path
         d="m 156.23047,393.8464 c -0.17904,0 -0.34017,-0.0195 -0.4834,-0.0586 -0.13998,-0.0391 -0.2653,-0.0911 -0.37598,-0.15625 -0.11068,-0.0651 -0.20833,-0.13834 -0.29297,-0.21972 -0.0846,-0.0846 -0.16113,-0.17253 -0.22949,-0.26367 l -0.0781,0 c 0.013,0.11393 0.026,0.22135 0.0391,0.32226 0.01,0.0846 0.0179,0.17253 0.0244,0.26367 0.01,0.0879 0.0147,0.15625 0.0147,0.20508 l 0,2.21192 -1.48926,0 0,-7.86133 1.21094,0 0.20996,0.70801 0.0684,0 c 0.0684,-0.11068 0.14648,-0.21484 0.23438,-0.3125 0.0879,-0.0977 0.1888,-0.18229 0.30273,-0.25391 0.11719,-0.0749 0.24902,-0.13346 0.39551,-0.17578 0.14648,-0.0456 0.30924,-0.0684 0.48828,-0.0684 0.2832,0 0.54036,0.0602 0.77149,0.18066 0.23111,0.12045 0.42968,0.29949 0.5957,0.53711 0.16601,0.23764 0.29459,0.53223 0.38574,0.88379 0.0911,0.35157 0.13671,0.75847 0.13672,1.2207 -1e-5,0.4655 -0.0472,0.87566 -0.1416,1.23047 -0.0944,0.35157 -0.22787,0.64779 -0.40039,0.88867 -0.16928,0.23764 -0.37273,0.41667 -0.61035,0.53711 -0.23438,0.12045 -0.49317,0.18067 -0.77637,0.18067 m -0.46387,-4.46778 c -0.16602,10e-6 -0.30762,0.0309 -0.4248,0.0928 -0.11394,0.0586 -0.20671,0.14811 -0.27832,0.26855 -0.0716,0.12045 -0.1237,0.27344 -0.15625,0.45899 -0.0326,0.18229 -0.0521,0.39551 -0.0586,0.63965 l 0,0.16113 c 0,0.26367 0.0146,0.49805 0.0439,0.70312 0.0325,0.20508 0.0846,0.37761 0.15625,0.51758 0.0716,0.13672 0.16601,0.24089 0.2832,0.3125 0.12044,0.0716 0.26855,0.10742 0.44434,0.10742 0.29622,0 0.51269,-0.13997 0.64941,-0.41992 0.13997,-0.2832 0.20996,-0.69336 0.20996,-1.23047 0,-0.5371 -0.07,-0.93912 -0.20996,-1.20605 -0.13672,-0.27018 -0.35645,-0.40527 -0.65918,-0.40528"
         style="fill:#ffffff"
         id="path3036"
         inkscape:connector-curvature="0" />
      <path
         d="m 163.07129,392.12765 c -1e-5,0.28646 -0.0521,0.53711 -0.15625,0.75195 -0.10417,0.21485 -0.25228,0.39388 -0.44434,0.53711 -0.19206,0.14323 -0.4248,0.25065 -0.69824,0.32227 -0.27344,0.0716 -0.57943,0.10742 -0.91797,0.10742 -0.17904,0 -0.34505,-0.007 -0.49804,-0.0195 -0.153,-0.01 -0.29786,-0.0277 -0.43458,-0.0537 -0.13671,-0.026 -0.26855,-0.0586 -0.3955,-0.0977 -0.12696,-0.0391 -0.25554,-0.0879 -0.38575,-0.14648 l 0,-1.23047 c 0.13672,0.0684 0.27995,0.13021 0.42969,0.18554 0.153,0.0553 0.30436,0.10417 0.4541,0.14649 0.14974,0.0391 0.2946,0.07 0.43457,0.0928 0.14323,0.0228 0.27507,0.0342 0.39551,0.0342 0.13346,0 0.2474,-0.0114 0.3418,-0.0342 0.0944,-0.026 0.17089,-0.0602 0.22949,-0.10254 0.0618,-0.0456 0.10579,-0.0976 0.13184,-0.15625 0.0293,-0.0618 0.0439,-0.12695 0.0439,-0.19531 0,-0.0684 -0.0114,-0.12858 -0.0342,-0.18066 -0.0195,-0.0553 -0.0667,-0.11231 -0.1416,-0.1709 -0.0749,-0.0618 -0.18555,-0.13021 -0.33203,-0.20508 -0.14323,-0.0781 -0.33692,-0.17253 -0.58105,-0.2832 -0.23764,-0.10742 -0.44434,-0.21322 -0.62012,-0.31739 -0.17253,-0.10742 -0.31576,-0.22623 -0.42969,-0.35644 -0.11068,-0.13021 -0.19368,-0.27832 -0.24902,-0.44434 -0.0553,-0.16927 -0.083,-0.36946 -0.083,-0.60058 0,-0.25391 0.0488,-0.47526 0.14648,-0.66407 0.0977,-0.19205 0.23601,-0.35155 0.41504,-0.47851 0.17904,-0.12695 0.39388,-0.22135 0.64453,-0.28321 0.25391,-0.0651 0.53548,-0.0976 0.84473,-0.0976 0.32552,0 0.63476,0.0374 0.92773,0.1123 0.29297,0.0749 0.59408,0.18718 0.90333,0.33692 l -0.44922,1.05468 c -0.2474,-0.11718 -0.48341,-0.21321 -0.70801,-0.28808 -0.22461,-0.0749 -0.44922,-0.1123 -0.67383,-0.11231 -0.20182,10e-6 -0.34831,0.0358 -0.43945,0.10743 -0.0879,0.0716 -0.13184,0.16927 -0.13184,0.29296 0,0.0651 0.0114,0.12371 0.0342,0.17579 0.0228,0.0488 0.0684,0.10091 0.13672,0.15625 0.0684,0.0521 0.16439,0.11068 0.28809,0.17578 0.12369,0.0618 0.28482,0.13835 0.48339,0.22949 0.23112,0.10091 0.43945,0.20183 0.625,0.30273 0.18555,0.0977 0.34505,0.20997 0.47852,0.33692 0.13346,0.12695 0.236,0.27507 0.30762,0.44433 0.0716,0.16928 0.10741,0.37435 0.10742,0.61524"
         style="fill:#ffffff"
         id="path3038"
         inkscape:connector-curvature="0" />
    </g>
    <text
       xml:space="preserve"
       style="font-size:9px;font-style:normal;font-variant:normal;font-weight:normal;font-stretch:normal;line-height:125%;letter-spacing:0px;word-spacing:0px;fill:#ffffff;fill-opacity:1;stroke:none;font-family:DejaVu Sans;-inkscape-font-specification:DejaVu Sans"
       x="135.4521"
       y="404.7023"
       id="text2990"
       sodipodi:linespacing="125%"><tspan
         sodipodi:role="line"
         id="tspan2992"
         x="135.4521"
         y="404.7023"
         style="font-size:8px;font-style:normal;font-variant:normal;font-weight:bold;font-stretch:normal;fill:#ffffff;font-family:Droid Sans;-inkscape-font-specification:Droid Sans Bold">Applications</tspan></text>
  </g>
</svg>
